<svg width="936" height="150" viewBox="0 0 936 150" fill="none" xmlns="http://www.w3.org/2000/svg">
<g clip-path="url(#clip0_266_4150)">
<rect width="48" height="8" fill="white"/>
<rect width="48" height="7.8" transform="translate(0 11)" fill="white"/>
<rect width="48" height="7.6" transform="translate(0 22)" fill="white"/>
<rect width="48" height="7.4" transform="translate(0 45)" fill="white"/>
<rect width="48" height="7" transform="translate(0 56.96)" fill="white"/>
<rect width="48" height="6.6" transform="translate(0 68.52)" fill="white"/>
<rect width="48" height="6.2" transform="translate(0 79.6801)" fill="white"/>
<rect width="48" height="5.8" transform="translate(0 90.4399)" fill="white"/>
<rect width="48" height="5.4" transform="translate(0 100.8)" fill="white"/>
<rect width="48" height="5" transform="translate(0 110.76)" fill="white"/>
<rect width="48" height="4.6" transform="translate(0 120.32)" fill="white"/>
<rect width="48" height="4.2" transform="translate(0 129.48)" fill="white"/>
<rect width="48" height="3.8" transform="translate(0 138.24)" fill="white"/>
<rect width="48" height="3.4" transform="translate(0 146.6)" fill="white"/>
</g>
<path d="M68.2834 42.3131H95.787V147.461H68.2834V42.3131ZM144.659 39.9859C151.147 39.9859 157.141 40.8322 162.642 42.5247C168.142 44.2172 172.938 46.8265 177.028 50.3526C181.118 53.8787 184.292 58.3921 186.549 63.8928C188.805 69.2525 189.934 75.67 189.934 83.1453V147.461H162.43V88.0113C162.43 79.1255 160.244 72.6375 155.872 68.5473C151.64 64.3159 144.659 62.2003 134.927 62.2003C127.592 62.2003 120.963 63.6107 115.039 66.4316C109.116 69.2525 104.32 72.8491 100.653 77.2214C96.9858 81.4528 94.8702 85.8956 94.306 90.5501L94.0945 79.7602C94.7997 74.8237 96.4217 70.0282 98.9605 65.3738C101.499 60.7193 104.884 56.488 109.116 52.6798C113.488 48.7306 118.636 45.6276 124.56 43.3709C130.484 41.1142 137.183 39.9859 144.659 39.9859Z" fill="white"/>
<path d="M266.173 149.788C255.595 149.788 246.004 147.532 237.4 143.018C228.938 138.364 222.238 131.946 217.302 123.766C212.365 115.444 209.897 105.853 209.897 94.9929C209.897 83.8505 212.295 74.189 217.09 66.0085C222.027 57.8279 228.726 51.481 237.189 46.9676C245.651 42.3131 255.313 39.9859 266.173 39.9859C275.623 39.9859 283.663 41.3963 290.292 44.2172C296.921 47.0381 302.28 50.9873 306.371 56.0649C310.461 61.0014 313.423 66.7842 315.257 73.4133C317.231 80.0423 318.218 87.2355 318.218 94.9929C318.218 101.199 317.231 107.546 315.257 114.034C313.282 120.381 310.249 126.305 306.159 131.805C302.069 137.165 296.709 141.537 290.08 144.922C283.451 148.166 275.482 149.788 266.173 149.788ZM275.059 128.632C283.381 128.632 290.574 127.221 296.639 124.401C302.704 121.58 307.358 117.63 310.602 112.553C313.846 107.475 315.468 101.622 315.468 94.9929C315.468 87.7997 313.776 81.7348 310.391 76.7983C307.147 71.7207 302.492 67.842 296.427 65.1622C290.503 62.4824 283.381 61.1425 275.059 61.1425C263.352 61.1425 254.255 64.2454 247.767 70.4513C241.279 76.6573 238.035 84.8378 238.035 94.9929C238.035 101.763 239.587 107.687 242.69 112.764C245.793 117.701 250.094 121.58 255.595 124.401C261.237 127.221 267.725 128.632 275.059 128.632ZM315.468 0H342.972V147.461H317.372C316.949 144.217 316.526 140.056 316.103 134.979C315.68 129.76 315.468 124.894 315.468 120.381V0Z" fill="white"/>
<path d="M494.266 147.461H466.762V42.3131H494.266V147.461ZM468.243 96.897L468.455 104.09C468.173 106.065 467.468 108.956 466.339 112.764C465.211 116.432 463.448 120.381 461.05 124.612C458.793 128.843 455.831 132.934 452.164 136.883C448.497 140.691 443.984 143.865 438.624 146.403C433.264 148.801 426.917 150 419.583 150C413.8 150 408.088 149.295 402.446 147.884C396.946 146.474 391.939 144.147 387.425 140.903C382.912 137.518 379.315 133.004 376.635 127.362C373.955 121.721 372.616 114.598 372.616 105.994V42.3131H400.119V101.34C400.119 108.11 401.177 113.47 403.293 117.419C405.549 121.227 408.793 123.907 413.025 125.458C417.256 127.01 422.263 127.786 428.046 127.786C435.662 127.786 442.221 126.164 447.721 122.92C453.222 119.535 457.665 115.444 461.05 110.649C464.576 105.853 466.974 101.269 468.243 96.897Z" fill="white"/>
<path d="M644.13 105.994C643.425 115.162 640.463 123.061 635.245 129.69C630.167 136.319 623.115 141.396 614.088 144.922C605.061 148.307 594.342 150 581.93 150C568.954 150 557.318 147.955 547.022 143.865C536.867 139.633 528.827 133.498 522.903 125.458C517.12 117.278 514.229 107.193 514.229 95.2045C514.229 83.2158 517.12 73.1312 522.903 64.9506C528.827 56.7701 536.867 50.5642 547.022 46.3329C557.318 42.1016 568.954 39.9859 581.93 39.9859C594.342 39.9859 604.991 41.7489 613.876 45.275C622.762 48.6601 629.744 53.5966 634.821 60.0846C640.04 66.5726 643.072 74.4006 643.919 83.5684H618.742C616.345 76.5162 611.902 71.0155 605.414 67.0663C598.926 63.1171 591.098 61.1425 581.93 61.1425C574.596 61.1425 567.896 62.4118 561.831 64.9506C555.907 67.4894 551.112 71.2976 547.445 76.3752C543.919 81.3117 542.156 87.5882 542.156 95.2045C542.156 102.68 543.919 108.956 547.445 114.034C550.971 118.97 555.766 122.708 561.831 125.247C567.896 127.645 574.596 128.843 581.93 128.843C591.803 128.843 599.843 126.869 606.048 122.92C612.395 118.97 616.697 113.329 618.954 105.994H644.13Z" fill="white"/>
<path d="M760.184 112.553H786.841C785.713 119.746 782.68 126.164 777.744 131.805C772.948 137.447 766.39 141.89 758.068 145.134C749.747 148.378 739.592 150 727.603 150C714.204 150 702.356 147.884 692.06 143.653C681.764 139.281 673.724 133.004 667.941 124.824C662.159 116.643 659.267 106.77 659.267 95.2045C659.267 83.6389 662.088 73.7659 667.73 65.5853C673.372 57.2638 681.199 50.9168 691.214 46.5444C701.369 42.1721 713.216 39.9859 726.757 39.9859C740.579 39.9859 752.074 42.1721 761.242 46.5444C770.41 50.9168 777.18 57.5458 781.552 66.4316C786.065 75.1763 787.97 86.3893 787.264 100.071H686.982C687.687 105.43 689.662 110.296 692.906 114.669C696.291 119.041 700.805 122.496 706.446 125.035C712.229 127.574 719.07 128.843 726.968 128.843C735.713 128.843 742.977 127.362 748.759 124.401C754.683 121.298 758.491 117.348 760.184 112.553ZM725.487 60.9309C715.332 60.9309 707.081 63.1876 700.734 67.701C694.387 72.0733 690.297 77.5035 688.463 83.9915H759.972C759.267 76.9394 755.882 71.3681 749.817 67.2779C743.893 63.0466 735.783 60.9309 725.487 60.9309Z" fill="white"/>
<path d="M858.929 149.788C848.351 149.788 838.76 147.532 830.156 143.018C821.693 138.364 814.994 131.946 810.057 123.766C805.121 115.444 802.652 105.853 802.652 94.9929C802.652 83.8505 805.05 74.189 809.846 66.0085C814.782 57.8279 821.482 51.481 829.944 46.9676C838.407 42.3131 848.068 39.9859 858.929 39.9859C868.379 39.9859 876.418 41.3963 883.047 44.2172C889.676 47.0381 895.036 50.9873 899.126 56.0649C903.217 61.0014 906.178 66.7842 908.012 73.4133C909.987 80.0423 910.974 87.2355 910.974 94.9929C910.974 101.199 909.987 107.546 908.012 114.034C906.037 120.381 903.005 126.305 898.915 131.805C894.824 137.165 889.465 141.537 882.836 144.922C876.207 148.166 868.238 149.788 858.929 149.788ZM867.815 128.632C876.136 128.632 883.329 127.221 889.394 124.401C895.459 121.58 900.114 117.63 903.358 112.553C906.602 107.475 908.224 101.622 908.224 94.9929C908.224 87.7997 906.531 81.7348 903.146 76.7983C899.902 71.7207 895.248 67.842 889.183 65.1622C883.259 62.4824 876.136 61.1425 867.815 61.1425C856.108 61.1425 847.011 64.2454 840.523 70.4513C834.035 76.6573 830.791 84.8378 830.791 94.9929C830.791 101.763 832.342 107.687 835.445 112.764C838.548 117.701 842.85 121.58 848.351 124.401C853.992 127.221 860.48 128.632 867.815 128.632ZM908.224 0H935.727V147.461H910.128C909.705 144.217 909.281 140.056 908.858 134.979C908.435 129.76 908.224 124.894 908.224 120.381V0Z" fill="white"/>
<defs>
<clipPath id="clip0_266_4150">
<rect width="48" height="150" fill="white"/>
</clipPath>
</defs>
</svg>
