<svg id="dark" xmlns="http://www.w3.org/2000/svg" xmlns:xlink="http://www.w3.org/1999/xlink" width="935.727" height="150" viewBox="0 0 935.727 150">
  <defs>
    <clipPath id="clip-path">
      <rect id="Rectangle_2626" data-name="Rectangle 2626" width="48" height="150"/>
    </clipPath>
  </defs>
  <g id="Group_9345" data-name="Group 9345" clip-path="url(#clip-path)">
    <rect id="Rectangle_2612" data-name="Rectangle 2612" width="48" height="8"/>
    <rect id="Rectangle_2613" data-name="Rectangle 2613" width="48" height="7.8" transform="translate(0 11)"/>
    <rect id="Rectangle_2614" data-name="Rectangle 2614" width="48" height="7.6" transform="translate(0 22)"/>
    <rect id="Rectangle_2615" data-name="Rectangle 2615" width="48" height="7.4" transform="translate(0 45)"/>
    <rect id="Rectangle_2616" data-name="Rectangle 2616" width="48" height="7" transform="translate(0 56.96)"/>
    <rect id="Rectangle_2617" data-name="Rectangle 2617" width="48" height="6.6" transform="translate(0 68.52)"/>
    <rect id="Rectangle_2618" data-name="Rectangle 2618" width="48" height="6.2" transform="translate(0 79.68)"/>
    <rect id="Rectangle_2619" data-name="Rectangle 2619" width="48" height="5.8" transform="translate(0 90.44)"/>
    <rect id="Rectangle_2620" data-name="Rectangle 2620" width="48" height="5.4" transform="translate(0 100.8)"/>
    <rect id="Rectangle_2621" data-name="Rectangle 2621" width="48" height="5" transform="translate(0 110.76)"/>
    <rect id="Rectangle_2622" data-name="Rectangle 2622" width="48" height="4.6" transform="translate(0 120.32)"/>
    <rect id="Rectangle_2623" data-name="Rectangle 2623" width="48" height="4.2" transform="translate(0 129.48)"/>
    <rect id="Rectangle_2624" data-name="Rectangle 2624" width="48" height="3.8" transform="translate(0 138.24)"/>
    <rect id="Rectangle_2625" data-name="Rectangle 2625" width="48" height="3.4" transform="translate(0 146.6)"/>
  </g>
  <path id="Path_5547" data-name="Path 5547" d="M68.283,42.313h27.5V147.461h-27.5Zm76.376-2.327a60.9,60.9,0,0,1,17.983,2.539,39.556,39.556,0,0,1,14.386,7.828,35.129,35.129,0,0,1,9.521,13.54q3.384,8.04,3.385,19.253v64.316h-27.5V88.011q0-13.329-6.558-19.464Q149.524,62.2,134.927,62.2a45.678,45.678,0,0,0-19.888,4.231,41.975,41.975,0,0,0-14.386,10.79A24.855,24.855,0,0,0,94.306,90.55l-.212-10.79a42.406,42.406,0,0,1,4.866-14.386A47.92,47.92,0,0,1,109.116,52.68a48.563,48.563,0,0,1,15.444-9.309A56.134,56.134,0,0,1,144.659,39.986Z"/>
  <path id="Path_5548" data-name="Path 5548" d="M266.173,149.788a60.977,60.977,0,0,1-28.773-6.77,52.724,52.724,0,0,1-20.1-19.252q-7.405-12.483-7.4-28.773,0-16.714,7.193-28.984a51.18,51.18,0,0,1,20.1-19.041q12.693-6.982,28.984-6.982,14.175,0,24.119,4.231a40.618,40.618,0,0,1,16.079,11.848,46.068,46.068,0,0,1,8.886,17.348,75.317,75.317,0,0,1,2.961,21.58,65.223,65.223,0,0,1-2.961,19.041,58.986,58.986,0,0,1-9.1,17.771,46.336,46.336,0,0,1-16.079,13.117Q280.136,149.788,266.173,149.788Zm8.886-21.156q12.483,0,21.58-4.231a31.066,31.066,0,0,0,18.829-29.408q0-10.79-5.077-18.195a30.854,30.854,0,0,0-13.964-11.636q-8.886-4.02-21.368-4.02-17.561,0-27.292,9.309t-9.732,24.542a33.4,33.4,0,0,0,4.655,17.771A32.267,32.267,0,0,0,255.6,124.4,42.974,42.974,0,0,0,275.059,128.632ZM315.468,0h27.5V147.461h-25.6q-.635-4.866-1.269-12.482-.635-7.829-.635-14.6Z"/>
  <path id="Path_5549" data-name="Path 5549" d="M494.266,147.461h-27.5V42.313h27.5ZM468.243,96.9l.212,7.193a66.583,66.583,0,0,1-2.116,8.674,60.287,60.287,0,0,1-5.289,11.848,58.716,58.716,0,0,1-8.886,12.271,45.711,45.711,0,0,1-13.54,9.52,46.331,46.331,0,0,1-19.041,3.6,70.371,70.371,0,0,1-17.137-2.116,44.385,44.385,0,0,1-15.021-6.981,35.692,35.692,0,0,1-10.79-13.541q-4.02-8.461-4.019-21.368V42.313h27.5V101.34q0,10.155,3.174,16.079a18.275,18.275,0,0,0,9.732,8.039,43.635,43.635,0,0,0,15.021,2.328q11.424,0,19.675-4.866a44.724,44.724,0,0,0,13.329-12.271A44.65,44.65,0,0,0,468.243,96.9Z"/>
  <path id="Path_5550" data-name="Path 5550" d="M644.13,105.994a42.656,42.656,0,0,1-8.885,23.7q-7.617,9.943-21.157,15.232Q600.547,150,581.93,150q-19.464,0-34.908-6.135-15.232-6.348-24.119-18.407-8.675-12.27-8.674-30.254T522.9,64.951a55.223,55.223,0,0,1,24.119-18.618q15.444-6.347,34.908-6.347,18.618,0,31.946,5.289,13.329,5.078,20.945,14.81a42.824,42.824,0,0,1,9.1,23.484H618.742a30.186,30.186,0,0,0-13.328-16.5q-9.732-5.924-23.484-5.924a51.555,51.555,0,0,0-20.1,3.808,33.8,33.8,0,0,0-14.386,11.425q-5.289,7.4-5.289,18.829,0,11.213,5.289,18.829a32.763,32.763,0,0,0,14.386,11.213,54.216,54.216,0,0,0,20.1,3.6q14.809,0,24.118-5.923a29.461,29.461,0,0,0,12.906-16.926Z"/>
  <path id="Path_5551" data-name="Path 5551" d="M760.184,112.553h26.657a37.575,37.575,0,0,1-9.1,19.252q-7.194,8.463-19.676,13.329T727.6,150q-20.1,0-35.543-6.347-15.444-6.558-24.119-18.829T659.267,95.2q0-17.348,8.463-29.619a53.4,53.4,0,0,1,23.484-19.041q15.233-6.558,35.543-6.558,20.733,0,34.485,6.558a42.162,42.162,0,0,1,20.31,19.887q6.77,13.117,5.712,33.639H686.982a30.888,30.888,0,0,0,5.924,14.6,34.789,34.789,0,0,0,13.54,10.366q8.675,3.808,20.522,3.808,13.117,0,21.791-4.442Q757.645,119.746,760.184,112.553Zm-34.7-51.622q-15.233,0-24.753,6.77-9.52,6.558-12.271,16.291h71.509a21.981,21.981,0,0,0-10.155-16.714Q740.931,60.931,725.487,60.931Z"/>
  <path id="Path_5552" data-name="Path 5552" d="M858.929,149.788a60.977,60.977,0,0,1-28.773-6.77,52.727,52.727,0,0,1-20.1-19.252q-7.4-12.483-7.405-28.773,0-16.714,7.194-28.984a51.177,51.177,0,0,1,20.1-19.041q12.695-6.982,28.985-6.982,14.175,0,24.118,4.231a40.611,40.611,0,0,1,16.079,11.848,46.055,46.055,0,0,1,8.886,17.348,75.283,75.283,0,0,1,2.962,21.58,65.193,65.193,0,0,1-2.962,19.041,58.984,58.984,0,0,1-9.1,17.771,46.345,46.345,0,0,1-16.079,13.117Q872.892,149.788,858.929,149.788Zm8.886-21.156q12.481,0,21.579-4.231a31.065,31.065,0,0,0,18.83-29.408q0-10.79-5.078-18.195a30.851,30.851,0,0,0-13.963-11.636q-8.886-4.02-21.368-4.02-17.561,0-27.292,9.309t-9.732,24.542a33.394,33.394,0,0,0,4.654,17.771A32.269,32.269,0,0,0,848.351,124.4,42.968,42.968,0,0,0,867.815,128.632ZM908.224,0h27.5V147.461h-25.6q-.634-4.866-1.27-12.482-.634-7.829-.634-14.6Z"/>
</svg>
